<svg width="1400" height="900" viewBox="0 0 1400 900" fill="none" xmlns="http://www.w3.org/2000/svg">
  <rect width="1400" height="900" fill="#0B1424"/>
  <g opacity=".22" stroke="#91A0B8">
    <path d="M0 150H1400M0 300H1400M0 450H1400M0 600H1400M0 750H1400"/>
    <path d="M175 0V900M350 0V900M525 0V900M700 0V900M875 0V900M1050 0V900M1225 0V900"/>
  </g>
  <text x="75" y="105" fill="white" font-family="Arial" font-size="34" font-weight="700">BTC / USD</text>
  <text x="1190" y="105" fill="#74F2AC" font-family="Arial" font-size="26" font-weight="700">+4.18%</text>
  <path d="M70 710C170 670 225 745 325 640C425 535 465 665 560 510C655 355 715 525 805 365C895 205 980 365 1070 245C1160 125 1240 205 1340 90V810H70V710Z" fill="url(#paint0_linear)"/>
  <path d="M70 710C170 670 225 745 325 640C425 535 465 665 560 510C655 355 715 525 805 365C895 205 980 365 1070 245C1160 125 1240 205 1340 90" stroke="#74F2AC" stroke-width="11" stroke-linecap="round"/>
  <rect x="995" y="760" width="145" height="62" rx="13" fill="#F76274"/>
  <rect x="1155" y="760" width="145" height="62" rx="13" fill="#51D395"/>
  <text x="1041" y="800" fill="white" font-family="Arial" font-size="22" font-weight="700">SELL</text>
  <text x="1204" y="800" fill="white" font-family="Arial" font-size="22" font-weight="700">BUY</text>
  <defs>
    <linearGradient id="paint0_linear" x1="705" y1="90" x2="705" y2="810" gradientUnits="userSpaceOnUse">
      <stop stop-color="#74F2AC" stop-opacity=".42"/>
      <stop offset="1" stop-color="#74F2AC" stop-opacity="0"/>
    </linearGradient>
  </defs>
</svg>
